<svg width="85" height="80" viewBox="0 0 85 80" fill="none" xmlns="http://www.w3.org/2000/svg">
<rect width="80" height="80" fill="#34C759"/>
<path d="M34.7637 3.76758C35.7598 3.76758 37.791 5.05664 40.8574 7.63477C42.7324 8.33789 43.9824 9.27539 44.6074 10.4473C45.1543 11.4824 45.4277 12.1465 45.4277 12.4395C45.4277 13.0059 43.3184 14.5293 39.0996 17.0098C36.3262 19.1582 34.334 20.4082 33.123 20.7598C32.498 21.209 32.1855 21.834 32.1855 22.6348L31.834 30.3691L31.9512 31.6582L31.7168 33.8848C31.834 34.3535 32.1074 34.5879 32.5371 34.5879C33.1816 34.5879 33.8848 32.5957 34.6465 28.6113C35.3105 27.0488 36.2871 25.9551 37.5762 25.3301L43.4355 22.166L44.0215 22.0488H44.2559L44.7246 22.5176V22.752C44.6074 23.0059 42.8887 24.373 39.5684 26.8535C37.6934 29.4902 36.7559 32.3418 36.7559 35.4082C36.7559 36.6582 37.5762 37.2832 39.2168 37.2832H39.6855C42.1855 37.2832 43.6699 35.6426 44.1387 32.3613C44.373 31.4238 44.8418 30.9551 45.5449 30.9551C46.4043 31.2871 46.834 31.7949 46.834 32.4785C46.3262 35.877 45.584 38.1816 44.6074 39.3926C42.3809 41.7168 40.4668 42.8789 38.8652 42.8789C35.7402 44.1094 34.1777 45.2812 34.1777 46.3945V47.0977L35.3496 51.1992C35.3496 53.0742 33.3574 54.4414 29.373 55.3008C27.5371 55.8477 24.0605 56.2773 18.9434 56.5898C12.6934 55.8281 9.56836 55.1641 9.56836 54.5977C5.58398 51.8242 3.5918 49.4805 3.5918 47.5664C4.04102 45.1445 4.82227 43.3867 5.93555 42.293C7.38086 40.7305 9.64648 39.2168 12.7324 37.752C13.7285 36.6582 15.1738 36.1113 17.0684 36.1113C18.5527 35.4473 19.2949 34.3535 19.2949 32.8301V28.7285C19.2949 26.8535 18.3965 25.623 16.5996 25.0371H15.1934L14.1387 25.1543L12.9668 25.0371H12.498C8.74805 25.7402 6.87305 26.541 6.87305 27.4395C6.61914 27.4395 6.46289 27.9473 6.4043 28.9629C6.4043 30.3691 7.41992 31.541 9.45117 32.4785C9.8418 32.8887 10.0371 33.2012 10.0371 33.416C9.72461 34.041 9.29492 34.3535 8.74805 34.3535C7.26367 34.3535 5.62305 33.3379 3.82617 31.3066C3.2793 30.3496 3.00586 29.4512 3.00586 28.6113C3.00586 26.0918 5.07617 23.6699 9.2168 21.3457C10.3301 20.9551 13.2988 20.6035 18.123 20.291C18.9824 19.8418 19.4121 19.2168 19.4121 18.416V17.9473C19.4121 16.7363 18.2012 15.6816 15.7793 14.7832L9.80273 10.4473L8.39648 10.2129H7.57617C5.64258 10.2129 4.50977 11.0723 4.17773 12.791V13.6113C4.17773 14.627 5.23242 16.2285 7.3418 18.416V18.7676C7.18555 19.0801 6.95117 19.2363 6.63867 19.2363C5.17383 19.2363 3.65039 17.7129 2.06836 14.666L1.83398 13.377C1.83398 11.5801 2.81055 10.0957 4.76367 8.92383C6.58008 8.2207 7.98633 7.86914 8.98242 7.86914C9.76367 7.86914 12.0293 8.88477 15.7793 10.916C17.5762 12.4785 19.0215 13.2598 20.1152 13.2598H20.2324C21.6387 13.0645 22.3418 12.3613 22.3418 11.1504L22.5762 10.5645C22.6348 10.3887 23.4551 10.0371 25.0371 9.50977C26.4629 7.84961 28.6895 6.36523 31.7168 5.05664C32.9473 4.19727 33.9629 3.76758 34.7637 3.76758ZM27.6152 17.127V20.1738C27.6152 21.5605 27.6934 22.459 27.8496 22.8691L27.7324 23.9238V24.7441L27.8496 27.6738C27.6934 28.3184 27.6152 29.1777 27.6152 30.252V30.7207L27.7324 31.4238C27.7324 32.2051 26.6387 33.1816 24.4512 34.3535C23.9043 34.6855 23.6309 35.1543 23.6309 35.7598C23.6309 36.541 25.1152 36.9316 28.084 36.9316C29.5684 36.9316 30.3105 35.3301 30.3105 32.127V27.6738L30.5449 23.5723V16.7754C30.3105 12.166 30.0762 9.86133 29.8418 9.86133L29.7246 9.74414H29.1387C28.2793 9.74414 27.8496 11.4238 27.8496 14.7832C27.7129 14.7832 27.6348 15.5645 27.6152 17.127ZM32.0684 14.5488V15.1348C32.0684 15.9941 32.4199 16.4238 33.123 16.4238H33.2402C34.1777 16.2285 34.6465 15.6035 34.6465 14.5488C34.6465 13.8262 34.334 13.3184 33.709 13.0254H32.8887C32.3418 13.2988 32.0684 13.8066 32.0684 14.5488ZM19.2949 44.8711L13.4355 44.5195H11.6777C9.49023 44.7734 8.39648 45.7891 8.39648 47.5664V47.8008C8.39648 49.5781 9.5293 51.0625 11.7949 52.2539C12.498 52.5664 13.2793 52.7227 14.1387 52.7227C14.9785 52.7227 15.6035 51.707 16.0137 49.6758C17.5566 47.9375 19.9785 46.7266 23.2793 46.043C27.8105 45.6914 30.0762 45.3008 30.0762 44.8711V44.6367C30.0762 44.168 28.7871 43.9336 26.209 43.9336C23.9434 43.9531 21.6387 44.2656 19.2949 44.8711ZM18.8262 52.1367C18.8262 52.8203 19.334 53.2109 20.3496 53.3086H20.9355C24.2949 53.3086 26.4043 52.293 27.2637 50.2617V49.6758C26.9707 49.1289 26.4629 48.8555 25.7402 48.8555C22.1074 48.8555 19.8027 49.793 18.8262 51.668V52.1367ZM73.1992 2.85938H73.4336C74.6836 3.93359 75.3086 5.26172 75.3086 6.84375C75.3086 9.28516 73.8242 11.1602 70.8555 12.4688L68.5117 12.8203C67.8086 12.8203 66.6758 12.3516 65.1133 11.4141H64.293C63.668 11.707 63.3555 12.4102 63.3555 13.5234L63.4727 26.6484L63.707 29.2266C63.4141 30.8672 62.5938 31.6875 61.2461 31.6875C57.6523 32.5469 55.8555 33.5234 55.8555 34.6172V34.8516C55.8555 36.8047 57.1055 37.7812 59.6055 37.7812C59.6055 37.9375 60.3867 38.0156 61.9492 38.0156H62.5352C63.5703 38.0156 66.0312 37.1172 69.918 35.3203C73.5898 31.4922 75.4258 27.7812 75.4258 24.1875V23.9531L74.957 21.0234L75.0742 20.6719H75.543C76.1875 20.6719 76.8125 22.1562 77.418 25.125C76.8516 29.0117 75.9141 31.9023 74.6055 33.7969C72.6914 36.2383 70.8945 37.918 69.2148 38.8359C66.4805 40.7109 63.7461 41.6484 61.0117 41.6484C61.0117 41.7461 60.2305 41.8633 58.668 42C53.043 41.5117 50.2305 41.043 50.2305 40.5938C48.4141 39.207 46.8906 37.6445 45.6602 35.9062C42.8477 32.1953 41.4414 29.0703 41.4414 26.5312L41.207 24.4219C41.9688 19.6953 43.2188 16.0625 44.957 13.5234C46.8906 10.2617 49.7422 7.76172 53.5117 6.02344C53.7266 6.02344 53.9219 6.21875 54.0977 6.60938C53.6289 7.58594 53.3945 8.25 53.3945 8.60156V8.95312C53.3945 9.5 53.668 9.77344 54.2148 9.77344H54.8008C55.0547 9.77344 58.5703 7.82031 65.3477 3.91406C66.0312 3.52344 67.0078 3.21094 68.2773 2.97656C69.3516 2.97656 69.9766 4.10938 70.1523 6.375C70.9922 7.85938 71.6953 8.60156 72.2617 8.60156H72.8477C73.3945 8.32813 73.668 7.85938 73.668 7.19531C73.668 6.27734 73.3945 4.94922 72.8477 3.21094L73.1992 2.85938ZM49.0586 25.7109C49.1953 28.0156 50.1328 29.5 51.8711 30.1641L52.457 30.2812C53.7852 30.2812 54.4492 29.4609 54.4492 27.8203V26.6484C54.4492 24.5586 54.332 22.6836 54.0977 21.0234L54.332 14.2266C54.332 13.6211 54.0195 13.1523 53.3945 12.8203H52.457C50.6406 12.8203 49.5078 15.9062 49.0586 22.0781V25.7109ZM30.9551 27.5C33.1035 27.7344 34.7051 28.0859 35.7598 28.5547C35.7598 28.8672 37.5566 29.1016 41.1504 29.2578L44.0801 28.9062C46.5801 29.1406 47.8301 29.6094 47.8301 30.3125C47.8301 30.7422 46.3848 32.1875 43.4941 34.6484C41.1504 37.3047 39.9785 38.9062 39.9785 39.4531V40.1562C39.9785 41.0352 41.3066 41.9727 43.9629 42.9688C44.6074 43.3594 45.5059 44.3359 46.6582 45.8984L49.3535 46.8359C49.666 47.168 49.8223 47.4805 49.8223 47.7734C49.8223 48.2617 48.7285 49.3555 46.541 51.0547C45.5645 52.1289 42.9082 54.4727 38.5723 58.0859C35.4863 62.168 32.791 64.5898 30.4863 65.3516H30.3691C30.0371 65.3516 28.8262 64.8047 26.7363 63.7109L25.5645 63.4766C24.627 63.4766 22.9473 64.7656 20.5254 67.3438C17.498 69.7656 15.3496 70.9766 14.0801 70.9766L11.8535 71.2109C8.88477 71.2109 7.08789 69.1406 6.46289 65C6.46289 63.0859 7.16602 61.0938 8.57227 59.0234C10.916 57.207 12.0879 55.918 12.0879 55.1562C12.0879 53.8672 12.9863 52.8906 14.7832 52.2266H15.4863C16.6582 52.2266 19.5098 52.7734 24.041 53.8672H24.627C25.4863 53.8672 26.1504 53.4766 26.6191 52.6953V51.6406C26.4238 51.25 26.1113 51.0547 25.6816 51.0547H24.5098C23.3184 51.0547 21.0918 50.0391 17.8301 48.0078C17.1074 47.4609 16.5605 45.9375 16.1895 43.4375C16.0332 43.125 15.9551 42.6953 15.9551 42.1484C16.5215 38.5742 16.9902 36.1523 17.3613 34.8828C18.3965 33.5352 19.373 32.0898 20.291 30.5469C23.1426 28.5937 26.6582 27.6172 30.8379 27.6172L30.9551 27.5ZM19.1191 35.5859C19.2949 36.8359 19.9199 37.4609 20.9941 37.4609L22.9863 37.2266L31.3066 39.9219H31.7754C33.3379 39.7266 34.1191 38.9453 34.1191 37.5781V37.3438C34.1191 35 32.9863 33.4375 30.7207 32.6562C29.5488 32.3438 27.9473 31.5234 25.916 30.1953L24.8613 30.0781C22.8496 30.0781 21.0137 31.4844 19.3535 34.2969L19.1191 35.5859ZM30.0176 53.9844V54.5703C30.0176 55.5469 31.5801 56.5234 34.7051 57.5H35.0566C36.0332 57.5 36.5801 56.875 36.6973 55.625C36.6973 54.3359 35.0176 53.5156 31.6582 53.1641H30.8379C30.4668 53.3398 30.1934 53.6133 30.0176 53.9844ZM9.86133 65.4688C10.0566 67.0312 10.8379 67.8125 12.2051 67.8125H12.4395C14.7246 67.8125 17.3809 66.2109 20.4082 63.0078V62.0703C20.1152 61.5234 19.6855 61.25 19.1191 61.25C12.9473 61.8945 9.86133 63.2617 9.86133 65.3516V65.4688ZM46.7734 57.4707C47.5938 57.4707 49.1562 58.8379 51.4609 61.5723L51.6953 62.3926C51.6953 63.3496 50.1328 64.4336 47.0078 65.6445H46.7734C45.3477 65.6445 44.0977 64.4434 43.0234 62.041L42.9062 61.2207C42.9062 59.6973 44.0391 58.4863 46.3047 57.5879L46.7734 57.4707Z" fill="#2B2B2B"/>
</svg>
